<svg width="25" height="26" viewBox="0 0 25 26" fill="none" xmlns="http://www.w3.org/2000/svg">
<path d="M11.0417 13.7396C10.944 13.6428 10.8665 13.5275 10.8137 13.4006C10.7608 13.2737 10.7335 13.1375 10.7335 13C10.7335 12.8625 10.7608 12.7263 10.8137 12.5994C10.8665 12.4725 10.944 12.3573 11.0417 12.2604L15.8229 7.4896C15.9206 7.39276 15.998 7.27755 16.0509 7.15061C16.1038 7.02368 16.131 6.88752 16.131 6.75001C16.131 6.6125 16.1038 6.47635 16.0509 6.34941C15.998 6.22247 15.9206 6.10726 15.8229 6.01043C15.6277 5.81642 15.3637 5.70752 15.0885 5.70752C14.8133 5.70752 14.5493 5.81642 14.3542 6.01043L9.57292 10.7917C8.98771 11.3776 8.659 12.1719 8.659 13C8.659 13.8281 8.98771 14.6224 9.57292 15.2083L14.3542 19.9896C14.5482 20.182 14.8101 20.2905 15.0833 20.2917C15.2204 20.2925 15.3563 20.2662 15.4832 20.2144C15.6102 20.1625 15.7256 20.0861 15.8229 19.9896C15.9206 19.8928 15.998 19.7776 16.0509 19.6506C16.1038 19.5237 16.131 19.3875 16.131 19.25C16.131 19.1125 16.1038 18.9763 16.0509 18.8494C15.998 18.7225 15.9206 18.6073 15.8229 18.5104L11.0417 13.7396Z" fill="white"/>
</svg>
