<svg width="25" height="26" viewBox="0 0 25 26" fill="none" xmlns="http://www.w3.org/2000/svg">
<path d="M16.0416 10.7917L11.2604 6.01043C11.0652 5.81642 10.8012 5.70752 10.526 5.70752C10.2508 5.70752 9.98681 5.81642 9.79164 6.01043C9.69401 6.10726 9.61652 6.22247 9.56363 6.34941C9.51075 6.47635 9.48352 6.6125 9.48352 6.75001C9.48352 6.88752 9.51075 7.02368 9.56363 7.15061C9.61652 7.27755 9.69401 7.39276 9.79164 7.4896L14.5833 12.2604C14.6809 12.3573 14.7584 12.4725 14.8113 12.5994C14.8642 12.7263 14.8914 12.8625 14.8914 13C14.8914 13.1375 14.8642 13.2737 14.8113 13.4006C14.7584 13.5275 14.6809 13.6428 14.5833 13.7396L9.79164 18.5104C9.59549 18.7052 9.48475 18.9699 9.48377 19.2463C9.4828 19.5227 9.59167 19.7882 9.78644 19.9844C9.9812 20.1805 10.2459 20.2913 10.5223 20.2923C10.7988 20.2932 11.0642 20.1844 11.2604 19.9896L16.0416 15.2083C16.6269 14.6224 16.9556 13.8281 16.9556 13C16.9556 12.1719 16.6269 11.3776 16.0416 10.7917Z" fill="white"/>
</svg>
