<svg width="26" height="26" viewBox="0 0 26 26" fill="none" xmlns="http://www.w3.org/2000/svg">
<g clip-path="url(#clip0_662_2243)">
<path d="M15.6665 16.3333C14.7885 16.3344 13.9257 16.1039 13.1652 15.6652C12.4046 15.2264 11.7732 14.595 11.3345 13.8344C10.8959 13.0738 10.6654 12.2111 10.6665 11.3331C10.6676 10.455 10.9001 9.59283 11.3407 8.83334H4.2015L4.1665 8.54001C4.09469 7.93218 3.80239 7.37181 3.34499 6.9651C2.8876 6.55839 2.2969 6.3336 1.68484 6.33334H1.49984C1.27882 6.33334 1.06686 6.42114 0.910582 6.57742C0.754301 6.7337 0.666504 6.94566 0.666504 7.16668C0.666504 7.38769 0.754301 7.59965 0.910582 7.75593C1.06686 7.91221 1.27882 8.00001 1.49984 8.00001H1.68484C1.88895 8.00004 2.08595 8.07497 2.23848 8.21061C2.39101 8.34624 2.48846 8.53313 2.51234 8.73584L3.659 18.4858C3.77805 19.4998 4.26524 20.4348 5.02809 21.1134C5.79095 21.7919 6.77638 22.1667 7.79734 22.1667H16.4998C16.7208 22.1667 16.9328 22.0789 17.0891 21.9226C17.2454 21.7663 17.3332 21.5544 17.3332 21.3333C17.3332 21.1123 17.2454 20.9004 17.0891 20.7441C16.9328 20.5878 16.7208 20.5 16.4998 20.5H7.79734C7.28141 20.4987 6.77851 20.3379 6.35762 20.0395C5.93674 19.7411 5.61848 19.3198 5.4465 18.8333H15.3807C16.3576 18.8334 17.3035 18.4902 18.053 17.8637C18.8026 17.2372 19.3082 16.3673 19.4815 15.4058L19.6798 14.3067C19.2163 14.9351 18.6116 15.446 17.9145 15.798C17.2174 16.15 16.4474 16.3334 15.6665 16.3333Z" fill="white"/>
<path d="M2.33317 25.5C3.25365 25.5 3.99984 24.7538 3.99984 23.8333C3.99984 22.9128 3.25365 22.1667 2.33317 22.1667C1.4127 22.1667 0.666504 22.9128 0.666504 23.8333C0.666504 24.7538 1.4127 25.5 2.33317 25.5Z" fill="white"/>
<path d="M10.6667 25.5C11.5871 25.5 12.3333 24.7538 12.3333 23.8333C12.3333 22.9128 11.5871 22.1667 10.6667 22.1667C9.74619 22.1667 9 22.9128 9 23.8333C9 24.7538 9.74619 25.5 10.6667 25.5Z" fill="white"/>
<path d="M17.1026 6.45238H19.294V8.15306C19.294 8.37859 19.4094 8.59488 19.6149 8.75435C19.8204 8.91382 20.0991 9.00341 20.3897 9.00341C20.6803 9.00341 20.959 8.91382 21.1645 8.75435C21.37 8.59488 21.4854 8.37859 21.4854 8.15306V6.45238H23.6769C23.9675 6.45238 24.2462 6.3628 24.4517 6.20333C24.6572 6.04386 24.7726 5.82757 24.7726 5.60204C24.7726 5.37652 24.6572 5.16023 24.4517 5.00076C24.2462 4.84129 23.9675 4.7517 23.6769 4.7517H21.4854V3.05102C21.4854 2.8255 21.37 2.60921 21.1645 2.44974C20.959 2.29027 20.6803 2.20068 20.3897 2.20068C20.0991 2.20068 19.8204 2.29027 19.6149 2.44974C19.4094 2.60921 19.294 2.8255 19.294 3.05102V4.7517H17.1026C16.812 4.7517 16.5333 4.84129 16.3278 5.00076C16.1223 5.16023 16.0068 5.37652 16.0068 5.60204C16.0068 5.82757 16.1223 6.04386 16.3278 6.20333C16.5333 6.3628 16.812 6.45238 17.1026 6.45238Z" fill="white"/>
</g>
<defs>
<clipPath id="clip0_662_2243">
<rect width="25" height="25" fill="white" transform="translate(0.666504 0.5)"/>
</clipPath>
</defs>
</svg>
