<svg width="35" height="36" viewBox="0 0 35 36" fill="none" xmlns="http://www.w3.org/2000/svg">
<path d="M30.8334 10.5H12.5001M9.16675 10.5H4.16675M30.8334 27.1667H12.5001M9.16675 27.1667H4.16675M22.5001 18.8333H4.16675M30.8334 18.8333H25.8334M10.8334 7.16667C11.2754 7.16667 11.6994 7.34227 12.0119 7.65483C12.3245 7.96739 12.5001 8.39131 12.5001 8.83334V12.1667C12.5001 12.6087 12.3245 13.0326 12.0119 13.3452C11.6994 13.6577 11.2754 13.8333 10.8334 13.8333C10.3914 13.8333 9.96747 13.6577 9.6549 13.3452C9.34234 13.0326 9.16675 12.6087 9.16675 12.1667V8.83334C9.16675 8.39131 9.34234 7.96739 9.6549 7.65483C9.96747 7.34227 10.3914 7.16667 10.8334 7.16667V7.16667ZM10.8334 23.8333C11.2754 23.8333 11.6994 24.0089 12.0119 24.3215C12.3245 24.6341 12.5001 25.058 12.5001 25.5V28.8333C12.5001 29.2754 12.3245 29.6993 12.0119 30.0119C11.6994 30.3244 11.2754 30.5 10.8334 30.5C10.3914 30.5 9.96747 30.3244 9.6549 30.0119C9.34234 29.6993 9.16675 29.2754 9.16675 28.8333V25.5C9.16675 25.058 9.34234 24.6341 9.6549 24.3215C9.96747 24.0089 10.3914 23.8333 10.8334 23.8333ZM24.1668 15.5C24.6088 15.5 25.0327 15.6756 25.3453 15.9882C25.6578 16.3007 25.8334 16.7246 25.8334 17.1667V20.5C25.8334 20.942 25.6578 21.366 25.3453 21.6785C25.0327 21.9911 24.6088 22.1667 24.1668 22.1667C23.7247 22.1667 23.3008 21.9911 22.9882 21.6785C22.6757 21.366 22.5001 20.942 22.5001 20.5V17.1667C22.5001 16.7246 22.6757 16.3007 22.9882 15.9882C23.3008 15.6756 23.7247 15.5 24.1668 15.5V15.5Z" stroke="white" stroke-width="2" stroke-linecap="round" stroke-linejoin="round"/>
</svg>
