<svg width="63" height="64" viewBox="0 0 63 64" fill="none" xmlns="http://www.w3.org/2000/svg">
<g filter="url(#filter0_d_189_88)">
<rect x="4" y="4" width="55" height="56" rx="12" fill="#FF6C00"/>
<g clip-path="url(#clip0_189_88)">
<path d="M34 35.3334C33.122 35.3344 32.2592 35.1039 31.4987 34.6652C30.7381 34.2265 30.1067 33.595 29.668 32.8344C29.2294 32.0739 28.9989 31.2111 29 30.3331C29.0011 29.4551 29.2336 28.5929 29.6742 27.8334H22.535L22.5 27.54C22.4282 26.9322 22.1359 26.3718 21.6785 25.9651C21.2211 25.5584 20.6304 25.3336 20.0183 25.3334H19.8333C19.6123 25.3334 19.4004 25.4212 19.2441 25.5775C19.0878 25.7337 19 25.9457 19 26.1667C19 26.3877 19.0878 26.5997 19.2441 26.756C19.4004 26.9122 19.6123 27 19.8333 27H20.0183C20.2224 27.0001 20.4194 27.075 20.572 27.2106C20.7245 27.3463 20.822 27.5332 20.8458 27.7359L21.9925 37.4859C22.1115 38.4999 22.5987 39.4349 23.3616 40.1134C24.1244 40.7919 25.1099 41.1667 26.1308 41.1667H34.8333C35.0543 41.1667 35.2663 41.0789 35.4226 40.9226C35.5789 40.7664 35.6667 40.5544 35.6667 40.3334C35.6667 40.1124 35.5789 39.9004 35.4226 39.7441C35.2663 39.5878 35.0543 39.5 34.8333 39.5H26.1308C25.6149 39.4988 25.112 39.3379 24.6911 39.0395C24.2702 38.7411 23.952 38.3198 23.78 37.8334H33.7142C34.6911 37.8334 35.6369 37.4902 36.3865 36.8637C37.1361 36.2372 37.6417 35.3673 37.815 34.4059L38.0133 33.3067C37.5498 33.9352 36.9451 34.446 36.248 34.798C35.5509 35.15 34.7809 35.3334 34 35.3334Z" fill="white"/>
<path d="M20.6667 44.5001C21.5871 44.5001 22.3333 43.7539 22.3333 42.8334C22.3333 41.9129 21.5871 41.1667 20.6667 41.1667C19.7462 41.1667 19 41.9129 19 42.8334C19 43.7539 19.7462 44.5001 20.6667 44.5001Z" fill="white"/>
<path d="M29 44.5001C29.9205 44.5001 30.6667 43.7539 30.6667 42.8334C30.6667 41.9129 29.9205 41.1667 29 41.1667C28.0795 41.1667 27.3333 41.9129 27.3333 42.8334C27.3333 43.7539 28.0795 44.5001 29 44.5001Z" fill="white"/>
<path d="M35.4358 25.4524H37.6273V27.1531C37.6273 27.3786 37.7427 27.5949 37.9482 27.7543C38.1537 27.9138 38.4324 28.0034 38.723 28.0034C39.0136 28.0034 39.2923 27.9138 39.4978 27.7543C39.7033 27.5949 39.8187 27.3786 39.8187 27.1531V25.4524H42.0102C42.3008 25.4524 42.5795 25.3628 42.785 25.2033C42.9904 25.0439 43.1059 24.8276 43.1059 24.602C43.1059 24.3765 42.9904 24.1602 42.785 24.0008C42.5795 23.8413 42.3008 23.7517 42.0102 23.7517H39.8187V22.051C39.8187 21.8255 39.7033 21.6092 39.4978 21.4497C39.2923 21.2903 39.0136 21.2007 38.723 21.2007C38.4324 21.2007 38.1537 21.2903 37.9482 21.4497C37.7427 21.6092 37.6273 21.8255 37.6273 22.051V23.7517H35.4358C35.1452 23.7517 34.8665 23.8413 34.661 24.0008C34.4556 24.1602 34.3401 24.3765 34.3401 24.602C34.3401 24.8276 34.4556 25.0439 34.661 25.2033C34.8665 25.3628 35.1452 25.4524 35.4358 25.4524Z" fill="white"/>
</g>
</g>
<defs>
<filter id="filter0_d_189_88" x="0" y="0" width="63" height="64" filterUnits="userSpaceOnUse" color-interpolation-filters="sRGB">
<feFlood flood-opacity="0" result="BackgroundImageFix"/>
<feColorMatrix in="SourceAlpha" type="matrix" values="0 0 0 0 0 0 0 0 0 0 0 0 0 0 0 0 0 0 127 0" result="hardAlpha"/>
<feOffset/>
<feGaussianBlur stdDeviation="2"/>
<feComposite in2="hardAlpha" operator="out"/>
<feColorMatrix type="matrix" values="0 0 0 0 0 0 0 0 0 0 0 0 0 0 0 0 0 0 0.25 0"/>
<feBlend mode="normal" in2="BackgroundImageFix" result="effect1_dropShadow_189_88"/>
<feBlend mode="normal" in="SourceGraphic" in2="effect1_dropShadow_189_88" result="shape"/>
</filter>
<clipPath id="clip0_189_88">
<rect width="25" height="25" fill="white" transform="translate(19 19.5)"/>
</clipPath>
</defs>
</svg>
