<svg width="10" height="8" viewBox="0 0 10 8" fill="none" xmlns="http://www.w3.org/2000/svg">
<path fill-rule="evenodd" clip-rule="evenodd" d="M9.02087 4.00028C9.02087 4.11878 8.9738 4.23243 8.89001 4.31622C8.80621 4.40001 8.69257 4.44709 8.57406 4.44709L0.531474 4.44709C0.412973 4.44709 0.299324 4.40001 0.21553 4.31622C0.131738 4.23243 0.0846635 4.11878 0.0846634 4.00028C0.0846634 3.88178 0.131738 3.76813 0.21553 3.68434C0.299324 3.60054 0.412972 3.55347 0.531474 3.55347L8.57406 3.55347C8.69256 3.55347 8.80621 3.60054 8.89001 3.68433C8.9738 3.76813 9.02087 3.88178 9.02087 4.00028Z" fill="white"/>
<path fill-rule="evenodd" clip-rule="evenodd" d="M9.78402 3.68397C9.82563 3.72547 9.85864 3.77478 9.88116 3.82906C9.90369 3.88334 9.91528 3.94154 9.91528 4.00031C9.91528 4.05908 9.90369 4.11727 9.88116 4.17156C9.85864 4.22584 9.82563 4.27515 9.78402 4.31665L7.10315 6.99751C7.01925 7.08141 6.90546 7.12855 6.78681 7.12855C6.66816 7.12855 6.55437 7.08141 6.47047 6.99751C6.38657 6.91361 6.33944 6.79982 6.33944 6.68117C6.33944 6.56252 6.38657 6.44873 6.47047 6.36483L8.83588 4.00031L6.47047 1.63579C6.38657 1.55189 6.33944 1.4381 6.33944 1.31945C6.33944 1.20079 6.38657 1.087 6.47047 1.0031C6.55437 0.919205 6.66816 0.872071 6.78681 0.872071C6.90546 0.872071 7.01925 0.919205 7.10315 1.0031L9.78402 3.68397Z" fill="white"/>
</svg>
