<svg width="10" height="8" viewBox="0 0 10 8" fill="none" xmlns="http://www.w3.org/2000/svg">
<path fill-rule="evenodd" clip-rule="evenodd" d="M0.979126 4.00021C0.979126 3.88171 1.0262 3.76806 1.10999 3.68427C1.19379 3.60047 1.30743 3.5534 1.42594 3.5534L9.46853 3.5534C9.58703 3.5534 9.70068 3.60047 9.78447 3.68427C9.86826 3.76806 9.91534 3.88171 9.91534 4.00021C9.91534 4.11871 9.86826 4.23236 9.78447 4.31615C9.70068 4.39994 9.58703 4.44702 9.46853 4.44702L1.42594 4.44702C1.30744 4.44702 1.19379 4.39995 1.10999 4.31615C1.0262 4.23236 0.979126 4.11871 0.979126 4.00021Z" fill="white"/>
<path fill-rule="evenodd" clip-rule="evenodd" d="M0.215984 4.31652C0.174374 4.27502 0.141361 4.22571 0.118836 4.17143C0.0963107 4.11714 0.0847161 4.05895 0.0847161 4.00018C0.0847161 3.94141 0.0963107 3.88322 0.118836 3.82893C0.141361 3.77465 0.174374 3.72534 0.215983 3.68384L2.89685 1.00297C2.98075 0.919075 3.09454 0.871941 3.21319 0.871941C3.33184 0.871941 3.44563 0.919075 3.52953 1.00297C3.61343 1.08687 3.66056 1.20066 3.66056 1.31932C3.66056 1.43797 3.61343 1.55176 3.52953 1.63566L1.16412 4.00018L3.52953 6.3647C3.61343 6.4486 3.66056 6.56239 3.66056 6.68104C3.66056 6.79969 3.61343 6.91348 3.52953 6.99738C3.44563 7.08128 3.33184 7.12842 3.21319 7.12842C3.09454 7.12842 2.98075 7.08128 2.89685 6.99738L0.215984 4.31652Z" fill="white"/>
</svg>
