<svg width="10" height="10" viewBox="0 0 10 10" fill="none" xmlns="http://www.w3.org/2000/svg">
<g clip-path="url(#clip0_141_938)">
<path d="M8.75 2.91667C8.75 3.14583 8.5625 3.33333 8.33333 3.33333H7.07083C6.9625 4.95833 5.60833 6.25 3.95833 6.25H2.83333L6.5125 9.2625C6.69167 9.40833 6.71667 9.67083 6.57083 9.85C6.4875 9.95 6.36667 10.0042 6.24583 10.0042C6.15417 10.0042 6.05833 9.975 5.98333 9.90833L1.40417 6.15417C1.26667 6.04167 1.21667 5.85833 1.275 5.69167C1.33333 5.525 1.49167 5.41667 1.66667 5.41667H3.95833C5.15 5.41667 6.13333 4.5 6.2375 3.33333H1.66667C1.4375 3.33333 1.25 3.14583 1.25 2.91667C1.25 2.6875 1.4375 2.5 1.66667 2.5H6.1625C5.8875 1.54167 5.00833 0.833333 3.95833 0.833333H1.66667C1.4375 0.833333 1.25 0.645833 1.25 0.416667C1.25 0.1875 1.4375 0 1.66667 0H8.33333C8.5625 0 8.75 0.1875 8.75 0.416667C8.75 0.645833 8.5625 0.833333 8.33333 0.833333H6.07917C6.55 1.27083 6.88333 1.85 7.01667 2.5H8.32917C8.55833 2.5 8.74583 2.6875 8.74583 2.91667H8.75Z" fill="black"/>
</g>
<defs>
<clipPath id="clip0_141_938">
<rect width="10" height="10" fill="white"/>
</clipPath>
</defs>
</svg>
