<svg width="25" height="26" viewBox="0 0 25 26" fill="none" xmlns="http://www.w3.org/2000/svg">
<g clip-path="url(#clip0_189_89)">
<path d="M15 16.3334C14.122 16.3344 13.2592 16.1039 12.4987 15.6652C11.7381 15.2265 11.1067 14.595 10.668 13.8344C10.2294 13.0739 9.99894 12.2111 10 11.3331C10.0011 10.4551 10.2336 9.59286 10.6742 8.83337H3.535L3.5 8.54004C3.42818 7.93221 3.13588 7.37184 2.67849 6.96513C2.2211 6.55842 1.6304 6.33363 1.01833 6.33337H0.833333C0.61232 6.33337 0.400358 6.42117 0.244078 6.57745C0.0877974 6.73373 0 6.94569 0 7.16671C0 7.38772 0.0877974 7.59968 0.244078 7.75596C0.400358 7.91224 0.61232 8.00004 0.833333 8.00004H1.01833C1.22244 8.00007 1.41945 8.075 1.57198 8.21064C1.72451 8.34627 1.82195 8.53316 1.84583 8.73587L2.9925 18.4859C3.11154 19.4999 3.59873 20.4349 4.36159 21.1134C5.12445 21.7919 6.10988 22.1667 7.13083 22.1667H15.8333C16.0543 22.1667 16.2663 22.0789 16.4226 21.9226C16.5789 21.7664 16.6667 21.5544 16.6667 21.3334C16.6667 21.1124 16.5789 20.9004 16.4226 20.7441C16.2663 20.5878 16.0543 20.5 15.8333 20.5H7.13083C6.6149 20.4988 6.11201 20.3379 5.69112 20.0395C5.27023 19.7411 4.95198 19.3198 4.78 18.8334H14.7142C15.6911 18.8334 16.6369 18.4902 17.3865 17.8637C18.1361 17.2372 18.6417 16.3673 18.815 15.4059L19.0133 14.3067C18.5498 14.9352 17.9451 15.446 17.248 15.798C16.5509 16.15 15.7809 16.3334 15 16.3334Z" fill="white"/>
<path d="M1.66667 25.5001C2.58714 25.5001 3.33333 24.7539 3.33333 23.8334C3.33333 22.9129 2.58714 22.1667 1.66667 22.1667C0.746192 22.1667 0 22.9129 0 23.8334C0 24.7539 0.746192 25.5001 1.66667 25.5001Z" fill="white"/>
<path d="M10 25.5001C10.9205 25.5001 11.6667 24.7539 11.6667 23.8334C11.6667 22.9129 10.9205 22.1667 10 22.1667C9.07953 22.1667 8.33334 22.9129 8.33334 23.8334C8.33334 24.7539 9.07953 25.5001 10 25.5001Z" fill="white"/>
<path d="M16.4358 6.45238H18.6273V8.15306C18.6273 8.37859 18.7427 8.59488 18.9482 8.75435C19.1537 8.91382 19.4324 9.00341 19.723 9.00341C20.0136 9.00341 20.2923 8.91382 20.4978 8.75435C20.7033 8.59488 20.8187 8.37859 20.8187 8.15306V6.45238H23.0102C23.3008 6.45238 23.5795 6.3628 23.785 6.20333C23.9904 6.04386 24.1059 5.82757 24.1059 5.60204C24.1059 5.37652 23.9904 5.16023 23.785 5.00076C23.5795 4.84129 23.3008 4.7517 23.0102 4.7517H20.8187V3.05102C20.8187 2.8255 20.7033 2.60921 20.4978 2.44974C20.2923 2.29027 20.0136 2.20068 19.723 2.20068C19.4324 2.20068 19.1537 2.29027 18.9482 2.44974C18.7427 2.60921 18.6273 2.8255 18.6273 3.05102V4.7517H16.4358C16.1452 4.7517 15.8665 4.84129 15.661 5.00076C15.4556 5.16023 15.3401 5.37652 15.3401 5.60204C15.3401 5.82757 15.4556 6.04386 15.661 6.20333C15.8665 6.3628 16.1452 6.45238 16.4358 6.45238Z" fill="white"/>
</g>
<defs>
<clipPath id="clip0_189_89">
<rect width="25" height="25" fill="white" transform="translate(0 0.5)"/>
</clipPath>
</defs>
</svg>
